<?xml version="1.0" encoding="UTF-8"?>
<svg version="1.1" xmlns="http://www.w3.org/2000/svg" width="512" height="591">
<path d="M0 0 C16.74224699 -0.30447762 33.48358828 -0.53330628 50.22793961 -0.67355824 C58.00381588 -0.74042898 65.77796641 -0.83148863 73.55273438 -0.98071289 C80.33405316 -1.11080678 87.11412184 -1.19427522 93.89665389 -1.22315043 C97.48460146 -1.24001754 101.06897497 -1.27926727 104.65576935 -1.37449074 C128.17887488 -1.97503146 128.17887488 -1.97503146 134.34094238 2.79165649 C137.50725368 5.86489488 139.71701421 9.23837115 142 13 C143.45398561 14.8121615 144.92902247 16.60794057 146.4375 18.375 C147.50871094 19.70724609 147.50871094 19.70724609 148.6015625 21.06640625 C151.44112065 24.53954659 154.36730316 27.92891413 157.3125 31.3125 C157.86381592 31.94623535 158.41513184 32.5799707 158.9831543 33.23291016 C160.10209507 34.51882055 161.22115452 35.80462768 162.34033203 37.09033203 C168.54872623 44.23391241 174.72823972 51.39645872 180.6875 58.75 C184.22872411 63.11431944 187.93655309 67.28542905 191.72265625 71.4375 C194.98727981 75.11090147 198.07021984 78.92316537 201.15234375 82.75 C202.95605161 85.02119749 202.95605161 85.02119749 205 87 C205.2784729 88.98684692 205.2784729 88.98684692 205.31884766 91.44970703 C205.34865219 92.83091232 205.34865219 92.83091232 205.37905884 94.24002075 C205.39638565 95.73382767 205.39638565 95.73382767 205.4140625 97.2578125 C205.44311172 98.78509476 205.44311172 98.78509476 205.4727478 100.3432312 C205.53265355 103.60373489 205.57897299 106.86427367 205.625 110.125 C205.66316965 112.33204687 205.70222077 114.53907869 205.7421875 116.74609375 C205.83836394 122.16392911 205.92337899 127.58185473 206 133 C207.73901618 130.95114063 209.47716693 128.90155733 211.21484375 126.8515625 C211.70126343 126.27865479 212.18768311 125.70574707 212.68884277 125.11547852 C220.19532982 116.32606235 220.19532982 116.32606235 227 107 C229.30251026 106.58616352 229.30251026 106.58616352 232.2401886 106.53157043 C233.35164749 106.50432388 234.46310638 106.47707733 235.60824585 106.44900513 C236.83363068 106.43465424 238.0590155 106.42030334 239.3215332 106.40551758 C240.60792191 106.37937881 241.89431061 106.35324005 243.21968079 106.3263092 C247.49649462 106.24240743 251.77342572 106.19155943 256.05078125 106.14453125 C256.77958488 106.13593637 257.50838851 106.12734149 258.25927711 106.11848617 C265.14106033 106.03735067 272.02285462 105.96673601 278.90499592 105.92461109 C287.69018239 105.87036713 296.47087632 105.76246472 305.25433093 105.57837182 C311.43880067 105.45320735 317.62207458 105.39034836 323.80777425 105.37257308 C327.49740123 105.36036721 331.18214326 105.3219351 334.87038612 105.21662331 C359.00708777 104.56045955 359.00708777 104.56045955 365.56234741 110.39169312 C368.47401044 113.61832586 370.70956757 117.06921116 372.78420067 120.87715721 C374.87010021 124.51923587 377.49534042 127.75183437 380.0625 131.0625 C381.05348813 132.3912146 382.0421028 133.7217058 383.02734375 135.0546875 C386.4606792 139.64681615 390.04705652 144.11000916 393.64526367 148.57324219 C397.60199242 153.4853998 401.45991897 158.46306454 405.29296875 163.47265625 C408.5681339 167.74963662 411.8784595 171.99920955 415.1875 176.25 C415.75774902 176.98259033 416.32799805 177.71518066 416.91552734 178.4699707 C417.75204834 179.54444458 417.75204834 179.54444458 418.60546875 180.640625 C419.12527124 181.32804653 419.64507374 182.01546806 420.18062782 182.72372055 C421.92101568 184.9925267 421.92101568 184.9925267 423.82420921 186.80028152 C430.57041345 193.90394846 430.07346037 201.7056933 430.09619141 210.90136719 C430.12536408 212.60936199 430.1572999 214.31731147 430.19177246 216.02520752 C430.27471705 220.65048131 430.31192058 225.27498812 430.33545732 229.90090847 C430.35160801 232.80505929 430.37642684 235.70901158 430.40397263 238.61307526 C430.49866696 248.78736535 430.55166789 258.96104497 430.57177734 269.13574219 C430.59164408 278.54692757 430.70890766 287.95348603 430.87156928 297.36318469 C431.00706797 305.49212166 431.06701101 313.61954704 431.07237375 321.74960065 C431.07704813 326.58311679 431.11049249 331.41172639 431.22282791 336.24404144 C431.77739562 361.6046946 428.59463728 377.96425693 412.45309067 397.87049103 C408.33493977 403.12418603 404.83139615 408.74614707 401.25 414.375 C399.86137317 416.51173256 398.46393287 418.64249913 397.06640625 420.7734375 C394.38289987 424.88033559 391.70337491 428.98978993 389.02734375 433.1015625 C383.0948413 442.21608426 377.15056013 451.32162552 371.125 460.375 C370.36546021 461.51775391 370.36546021 461.51775391 369.59057617 462.68359375 C366.12375055 467.87624945 366.12375055 467.87624945 365 469 C363.54518505 469.0956161 362.08574514 469.12188351 360.62779236 469.12025452 C359.68403244 469.12162918 358.74027252 469.12300385 357.76791382 469.12442017 C356.72422638 469.12082489 355.68053894 469.11722961 354.60522461 469.11352539 C353.51267868 469.11367142 352.42013275 469.11381744 351.29447937 469.1139679 C347.66374767 469.11326822 344.03306654 469.10547329 340.40234375 469.09765625 C337.89270557 469.09579226 335.38306702 469.09436827 332.87342834 469.09336853 C326.93065407 469.08993348 320.98789616 469.08204273 315.04513031 469.07201904 C307.61798075 469.05976253 300.19082895 469.05437792 292.76367188 469.04882812 C279.50910527 469.03808811 266.25455379 469.02120082 253 469 C253.02585678 469.56625595 253.05171356 470.1325119 253.07835388 470.71592712 C253.18195296 473.31944955 253.24550708 475.92253715 253.30859375 478.52734375 C253.3499646 479.41788452 253.39133545 480.30842529 253.43395996 481.22595215 C253.57230885 488.85965849 251.21683646 492.83007797 246.40795898 498.52026367 C245.94204346 498.98150635 245.47612793 499.44274902 244.99609375 499.91796875 C242.3579765 502.61102944 239.97422566 505.42206271 237.625 508.375 C236.903125 509.25285156 236.18125 510.13070313 235.4375 511.03515625 C227.91595501 520.18395857 220.45398396 529.3751997 213.16455078 538.71020508 C209.12995189 543.86455451 204.99999493 548.93837155 200.86010742 554.00830078 C196.64936857 559.17473541 192.51448553 564.39666933 188.42578125 569.66015625 C183.54000398 575.93123013 183.54000398 575.93123013 180.69469643 576.29358196 C179.72396376 576.31381829 178.75323109 576.33405462 177.75308228 576.35490417 C176.64017822 576.38222122 175.52727417 576.40953827 174.38064575 576.43768311 C172.54021194 576.46695892 172.54021194 576.46695892 170.66259766 576.49682617 C169.37460266 576.5244252 168.08660767 576.55202423 166.75958252 576.58045959 C154.85599836 576.82712842 142.94884207 576.94927344 131.04319191 577.04506969 C122.24885111 577.1170817 113.45914738 577.24466677 104.66682017 577.44712847 C98.47733035 577.58480311 92.28909695 577.65651448 86.09813726 577.68084508 C82.40426931 577.69720778 78.71606301 577.7420033 75.02388382 577.85854149 C52.63255558 578.53466526 52.63255558 578.53466526 46.60262108 574.32719612 C42.72543775 570.39038299 40.18110405 565.97773625 37.92289162 560.96769714 C36.72634642 558.41654323 35.16362849 556.25687632 33.44140625 554.03515625 C32.96058594 553.37064453 32.47976562 552.70613281 31.984375 552.02148438 C31.28054687 551.05178711 31.28054687 551.05178711 30.5625 550.0625 C29.47002588 548.55340439 28.37757876 547.04428922 27.28515625 545.53515625 C26.74262207 544.78637207 26.20008789 544.03758789 25.64111328 543.26611328 C22.92351827 539.513552 20.21205527 535.75656581 17.5 532 C16.41669638 530.49997854 15.33336304 528.99997854 14.25 527.5 C7.75 518.5 7.75 518.5 6.12329102 516.24755859 C5.04574948 514.75562787 3.96811358 513.26376528 2.89038086 511.77197266 C0.09263417 507.8990816 -2.70319916 504.02482938 -5.49609375 500.1484375 C-6.07230469 499.34921875 -6.64851563 498.55 -7.2421875 497.7265625 C-8.33264902 496.21398684 -9.42253971 494.70099941 -10.51171875 493.1875 C-11.011875 492.49398438 -11.51203125 491.80046875 -12.02734375 491.0859375 C-12.45781006 490.4882959 -12.88827637 489.8906543 -13.33178711 489.27490234 C-14.91235423 487.0468011 -14.91235423 487.0468011 -16.50534058 485.29856873 C-20.98289651 479.98810319 -21.78383199 476.32584161 -21.453125 469.48828125 C-21.43255767 467.65951657 -21.41306054 465.83073959 -21.39453125 464.00195312 C-21.33047385 461.16215648 -21.25042493 458.32427091 -21.14794922 455.4855957 C-20.76859289 443.58147711 -21.07370782 435.58644708 -29.43798828 426.65454102 C-30.28345215 425.77854248 -31.12891602 424.90254395 -32 424 C-33.08150594 422.57283151 -34.13546567 421.12380527 -35.14453125 419.64453125 C-35.58667969 419.01224609 -36.02882812 418.37996094 -36.484375 417.72851562 C-36.92265625 417.09623047 -37.3609375 416.46394531 -37.8125 415.8125 C-42.45738122 409.17262411 -47.16563077 402.58312431 -51.93286133 396.03051758 C-52.9434835 394.63775128 -53.93577311 393.23155185 -54.91217709 391.81458664 C-56.51485465 389.65402272 -58.11689518 387.75249122 -59.92192173 385.77655411 C-71.03341623 372.9173514 -70.70746215 360.39598286 -70.53686523 344.02246094 C-70.54491015 341.2232376 -70.57083397 338.42423953 -70.59571838 335.62512207 C-70.64490388 328.84935119 -70.63016162 322.07521484 -70.59174167 315.29943201 C-70.56176404 309.78923868 -70.55591655 304.27949382 -70.56685066 298.7692337 C-70.56840074 297.98153712 -70.56995081 297.19384053 -70.57154785 296.38227434 C-70.57481261 294.78155281 -70.57813748 293.18083139 -70.58152176 291.5801101 C-70.61047989 276.61533483 -70.56700161 261.65145628 -70.49770147 246.68685701 C-70.43996562 233.87061123 -70.44232545 221.05553439 -70.48901367 208.23925781 C-70.5433314 193.31769733 -70.56195799 178.39681143 -70.52301747 163.47517991 C-70.51894365 161.88195445 -70.51490832 160.28872889 -70.51091194 158.69550323 C-70.50891992 157.91181175 -70.5069279 157.12812026 -70.50487552 156.32068054 C-70.49326686 150.82061224 -70.50666904 145.32093609 -70.52981377 139.82091522 C-70.55728046 133.11313745 -70.54486926 126.40680071 -70.48267352 119.69923326 C-70.45194005 116.28213224 -70.43817243 112.86736675 -70.47275925 109.45024872 C-70.65113768 85.76891881 -70.65113768 85.76891881 -63.60780334 78.03033447 C-61.80086294 76.25671135 -59.93320346 74.64227861 -58 73 C-56.90962372 71.7143312 -55.84278637 70.40676739 -54.8359375 69.0546875 C-54.21452881 68.25538818 -54.21452881 68.25538818 -53.58056641 67.43994141 C-52.98381104 66.66529541 -52.98381104 66.66529541 -52.375 65.875 C-48.461632 60.84869407 -44.48373999 55.88536059 -40.4375 50.96484375 C-32.92332187 41.82500208 -25.46409786 32.64579608 -18.18652344 23.31616211 C-13.92127378 17.86291405 -9.54703377 12.50001616 -5.15039062 7.15234375 C-4.62380859 6.50910156 -4.09722656 5.86585937 -3.5546875 5.203125 C-3.08530762 4.63239258 -2.61592773 4.06166016 -2.13232422 3.47363281 C-0.91144939 1.98152438 -0.91144939 1.98152438 0 0 Z " fill="#FE7991" transform="translate(69,0)"/>
<path d="M0 0 C2.30251026 -0.41383648 2.30251026 -0.41383648 5.2401886 -0.46842957 C6.35164749 -0.49567612 7.46310638 -0.52292267 8.60824585 -0.55099487 C9.83363068 -0.56534576 11.0590155 -0.57969666 12.3215332 -0.59448242 C13.60792191 -0.62062119 14.89431061 -0.64675995 16.21968079 -0.6736908 C20.49649462 -0.75759257 24.77342572 -0.80844057 29.05078125 -0.85546875 C29.77958488 -0.86406363 30.50838851 -0.87265851 31.25927711 -0.88151383 C38.14106033 -0.96264933 45.02285462 -1.03326399 51.90499592 -1.07538891 C60.69018239 -1.12963287 69.47087632 -1.23753528 78.25433093 -1.42162818 C84.43880067 -1.54679265 90.62207458 -1.60965164 96.80777425 -1.62742692 C100.49740123 -1.63963279 104.18214326 -1.6780649 107.87038612 -1.78337669 C132.00708777 -2.43954045 132.00708777 -2.43954045 138.56234741 3.39169312 C141.47401044 6.61832586 143.70956757 10.06921116 145.78420067 13.87715721 C147.87010021 17.51923587 150.49534042 20.75183437 153.0625 24.0625 C154.05348813 25.3912146 155.0421028 26.7217058 156.02734375 28.0546875 C159.4606792 32.64681615 163.04705652 37.11000916 166.64526367 41.57324219 C170.60199242 46.4853998 174.45991897 51.46306454 178.29296875 56.47265625 C181.5681339 60.74963662 184.8784595 64.99920955 188.1875 69.25 C189.04287354 70.3488855 189.04287354 70.3488855 189.91552734 71.4699707 C190.47320801 72.18628662 191.03088867 72.90260254 191.60546875 73.640625 C192.12527124 74.32804653 192.64507374 75.01546806 193.18062782 75.72372055 C194.92101568 77.9925267 194.92101568 77.9925267 196.82420921 79.80028152 C203.57041345 86.90394846 203.07346037 94.7056933 203.09619141 103.90136719 C203.12536408 105.60936199 203.1572999 107.31731147 203.19177246 109.02520752 C203.27471705 113.65048131 203.31192058 118.27498812 203.33545732 122.90090847 C203.35160801 125.80505929 203.37642684 128.70901158 203.40397263 131.61307526 C203.49866696 141.78736535 203.55166789 151.96104497 203.57177734 162.13574219 C203.59164408 171.54692757 203.70890766 180.95348603 203.87156928 190.36318469 C204.00706797 198.49212166 204.06701101 206.61954704 204.07237375 214.74960065 C204.07704813 219.58311679 204.11049249 224.41172639 204.22282791 229.24404144 C204.77739562 254.6046946 201.59463728 270.96425693 185.45309067 290.87049103 C181.33493977 296.12418603 177.83139615 301.74614707 174.25 307.375 C172.86137317 309.51173256 171.46393287 311.64249913 170.06640625 313.7734375 C167.38289987 317.88033559 164.70337491 321.98978993 162.02734375 326.1015625 C156.0948413 335.21608426 150.15056013 344.32162552 144.125 353.375 C143.61864014 354.13683594 143.11228027 354.89867187 142.59057617 355.68359375 C139.12375055 360.87624945 139.12375055 360.87624945 138 362 C136.54518505 362.0956161 135.08574514 362.12188351 133.62779236 362.12025452 C132.68403244 362.12162918 131.74027252 362.12300385 130.76791382 362.12442017 C129.72422638 362.12082489 128.68053894 362.11722961 127.60522461 362.11352539 C126.51267868 362.11367142 125.42013275 362.11381744 124.29447937 362.1139679 C120.66374767 362.11326822 117.03306654 362.10547329 113.40234375 362.09765625 C110.89270557 362.09579226 108.38306702 362.09436827 105.87342834 362.09336853 C99.93065407 362.08993348 93.98789616 362.08204273 88.04513031 362.07201904 C80.61798075 362.05976253 73.19082895 362.05437792 65.76367188 362.04882812 C52.50910527 362.03808811 39.25455379 362.02120082 26 362 C26.01784798 360.18288261 26.01784798 360.18288261 26.03605652 358.32905579 C26.14137365 346.86904886 26.18815794 335.41007005 26.17878246 323.94956684 C26.17581339 318.05845403 26.19290484 312.16887053 26.25708008 306.27807617 C26.3183478 300.58453236 26.32530223 294.89319429 26.29583168 289.19942284 C26.29393954 287.03584126 26.31106736 284.87215038 26.34822655 282.7088871 C26.71806683 267.83785214 26.71806683 267.83785214 19.6081543 255.30273438 C17.79339352 253.46026103 15.91893448 251.73819413 14 250 C12.95921586 248.77066163 11.94326299 247.51887654 10.9765625 246.23046875 C6.22937664 240.08751562 1.41037039 234.0133618 -3.5 228 C-7.54991541 223.03775407 -11.55799778 218.04841535 -15.5 213 C-21.07976977 205.85543529 -26.8049509 198.83241846 -32.53125 191.80517578 C-34.59179416 189.27265192 -36.64251683 186.73261492 -38.6875 184.1875 C-39.28949219 183.43855469 -39.89148438 182.68960938 -40.51171875 181.91796875 C-41.74383929 180.33011788 -42.88515038 178.67227442 -44 177 C-46.90613434 176.48853802 -46.90613434 176.48853802 -50.3203125 176.48828125 C-51.57714844 176.45283203 -52.83398438 176.41738281 -54.12890625 176.38085938 C-55.44761719 176.35830078 -56.76632813 176.33574219 -58.125 176.3125 C-59.46487759 176.27933471 -60.80472311 176.24484578 -62.14453125 176.20898438 C-65.4296033 176.12626673 -68.71440032 176.05719307 -72 176 C-72.27934503 164.76866155 -72.49190784 153.53816313 -72.62174606 142.30404472 C-72.68409847 137.08604198 -72.76850722 131.87043344 -72.90527344 126.65380859 C-73.03668942 121.60907 -73.10761781 116.56661746 -73.13852692 111.520298 C-73.16052047 109.60565349 -73.20347057 107.69111938 -73.26876068 105.77746201 C-73.60620267 95.4669095 -73.36909177 87.97465526 -66.21191406 80.05908203 C-64.66677375 78.47406878 -63.09205582 76.93942698 -61.4741745 75.42891312 C-59.24723851 73.27035045 -57.3567084 70.86849538 -55.4375 68.4375 C-52.17221301 64.41641422 -48.85427233 60.44667918 -45.5 56.5 C-36.72871928 46.1710031 -28.12771042 35.68665532 -19.875 24.9375 C-15.6478308 19.4687846 -11.21509821 14.16706799 -6.79833984 8.85131836 C-6.20875488 8.13983643 -5.61916992 7.42835449 -5.01171875 6.6953125 C-4.21447388 5.7364917 -4.21447388 5.7364917 -3.40112305 4.75830078 C-1.83335857 2.84181819 -1.83335857 2.84181819 0 0 Z " fill="#FEC33C" transform="translate(296,107)"/>
<path d="M0 0 C1.10022491 -0.02594238 2.20044983 -0.05188477 3.33401489 -0.07861328 C4.55207321 -0.10172577 5.77013153 -0.12483826 7.02510071 -0.14865112 C8.29998352 -0.17610413 9.57486633 -0.20355713 10.88838196 -0.23184204 C22.69250763 -0.47796911 34.49857643 -0.61708151 46.30465984 -0.72828865 C54.23802822 -0.80472516 62.16826842 -0.91295642 70.09980774 -1.10275269 C77.02221763 -1.26838426 83.94244534 -1.3729528 90.86680728 -1.40552509 C94.52844811 -1.42471222 98.18422876 -1.47257426 101.84404564 -1.59332657 C125.80251308 -2.35129339 125.80251308 -2.35129339 132.72276306 3.88632202 C135.85670231 7.34728699 138.34069251 11.05273508 140.65389442 15.09874344 C142.6255286 18.41241358 145.04768831 21.32185479 147.48725891 24.29714966 C148.37670721 25.43173389 149.26375305 26.56820937 150.14741516 27.70730591 C153.18959776 31.59082673 156.30528836 35.41312683 159.42475891 39.23464966 C163.47458075 44.19697353 167.48275504 49.18623219 171.42475891 54.23464966 C175.93299304 60.00717645 180.52684158 65.70579258 185.15913391 71.37918091 C186.16074387 72.60621714 187.15552592 73.83886561 188.14265728 75.0775795 C189.36520217 76.55735767 190.63918242 77.99567058 191.9529314 79.39510727 C197.7631545 85.87339127 199.10096198 90.4868189 199.00752258 99.07156372 C199.02636002 100.21121078 199.04519745 101.35085785 199.06460571 102.52503967 C199.11483462 106.26769133 199.10643278 110.0073498 199.09272766 113.75027466 C199.10575103 116.37046298 199.12070023 118.99064238 199.13748169 121.61080933 C199.16567438 127.09491719 199.15832538 132.57818873 199.13252258 138.06228638 C199.10356661 144.36749833 199.14390994 150.66954636 199.2188856 156.97430825 C199.2887257 163.07860135 199.29627766 169.18144952 199.27991676 175.28609467 C199.28012224 177.86471114 199.2972849 180.44338809 199.33231163 183.02176666 C199.61430668 207.03969428 199.61430668 207.03969428 191.1533308 216.16371536 C189.76583036 217.54320435 188.34581602 218.8897541 186.92475891 220.23464966 C185.44174516 222.00594178 183.97866685 223.79442856 182.54975891 225.60964966 C181.46694641 226.926427 181.46694641 226.926427 180.36225891 228.26980591 C172.84071392 237.41860822 165.37874287 246.60984936 158.08930969 255.94485474 C154.0547108 261.09920417 149.92475384 266.17302121 145.78486633 271.24295044 C141.57412748 276.40938507 137.43924444 281.63131899 133.35054016 286.89480591 C128.46476289 293.16587979 128.46476289 293.16587979 125.61945534 293.52823162 C124.64872267 293.54846795 123.67799 293.56870428 122.67784119 293.58955383 C121.56493713 293.61687088 120.45203308 293.64418793 119.30540466 293.67233276 C118.07844879 293.69184998 116.85149292 293.71136719 115.58735657 293.73147583 C114.29936157 293.75907486 113.01136658 293.78667389 111.68434143 293.81510925 C99.78075727 294.06177808 87.87360098 294.1839231 75.96795082 294.27971935 C67.17361002 294.35173135 58.38390629 294.47931643 49.59157908 294.68177813 C43.40208927 294.81945277 37.21385586 294.89116414 31.02289617 294.91549474 C27.32902822 294.93185744 23.64082193 294.97665296 19.94864273 295.09319115 C-2.44268551 295.76931492 -2.44268551 295.76931492 -8.47262001 291.56184578 C-12.34980333 287.62503265 -14.89413704 283.21238591 -17.15234947 278.2023468 C-18.34889467 275.65119289 -19.91161259 273.49152597 -21.63383484 271.26980591 C-22.11465515 270.60529419 -22.59547546 269.94078247 -23.09086609 269.25613403 C-23.56008484 268.60966919 -24.02930359 267.96320435 -24.51274109 267.29714966 C-25.60521521 265.78805405 -26.69766233 264.27893888 -27.79008484 262.76980591 C-28.60388611 261.64662964 -28.60388611 261.64662964 -29.43412781 260.50076294 C-32.15172282 256.74820166 -34.86318582 252.99121546 -37.57524109 249.23464966 C-38.65854471 247.7346282 -39.74187805 246.2346282 -40.82524109 244.73464966 C-47.32524109 235.73464966 -47.32524109 235.73464966 -48.95195007 233.48220825 C-50.02949161 231.99027752 -51.10712751 230.49841494 -52.18486023 229.00662231 C-54.98260692 225.13373126 -57.77844025 221.25947904 -60.57133484 217.38308716 C-61.14754578 216.58386841 -61.72375671 215.78464966 -62.31742859 214.96121216 C-63.40789011 213.4486365 -64.4977808 211.93564907 -65.58695984 210.42214966 C-66.33719421 209.38187622 -66.33719421 209.38187622 -67.10258484 208.32058716 C-67.58767517 207.62964966 -68.0727655 206.93871216 -68.57255554 206.22683716 C-70.02423851 204.2094593 -70.02423851 204.2094593 -71.77128601 202.52371216 C-77.92214414 195.96376437 -76.76704164 187.89232719 -76.51274109 179.48464966 C-76.47629959 177.74128567 -76.44212011 175.99787323 -76.40995789 174.25442505 C-76.35585076 171.33297496 -76.29891464 168.41180456 -76.23065186 165.49064636 C-76.06695236 157.81770206 -76.11209889 150.16174735 -76.22518921 142.48931885 C-76.30211715 137.17056511 -76.32960299 131.8518224 -76.34641743 126.53257179 C-76.36068276 122.74326503 -76.3968434 118.95697051 -76.48512268 115.16860962 C-77.10870237 87.05193755 -77.10870237 87.05193755 -68.83695984 77.64480591 C-67.18105991 75.95157726 -65.48816512 74.34719988 -63.71624756 72.77624512 C-60.98365636 70.20919236 -58.81474199 67.22875713 -56.57524109 64.23464966 C-55.68583539 63.09205751 -54.79419865 61.9511954 -53.89945984 60.81277466 C-53.44619324 60.23591919 -52.99292664 59.65906372 -52.52592468 59.06472778 C-48.75388293 54.3061911 -44.90012504 49.61300148 -41.06352234 44.90652466 C-38.71802576 42.02852512 -36.38922562 39.1380913 -34.07524109 36.23464966 C-31.22204129 32.65463476 -28.33971531 29.09961986 -25.4473114 25.55130005 C-20.03688878 18.91373085 -14.68044393 12.24002519 -9.41386414 5.48757935 C-5.22109052 0.11487001 -5.22109052 0.11487001 0 0 Z " fill="#B1AFFE" transform="translate(124.07524108886719,282.7653503417969)"/>
<path d="M0 0 C1.93045921 -0.04030334 1.93045921 -0.04030334 3.8999176 -0.0814209 C7.42129017 -0.1519121 10.94110695 -0.17083545 14.46311688 -0.17594719 C16.6688463 -0.18164857 18.87418483 -0.19875491 21.07981682 -0.21992493 C28.79142049 -0.29389936 36.50192051 -0.32661424 44.21386719 -0.3203125 C51.37529698 -0.31551653 58.53188504 -0.39970472 65.69209057 -0.52626181 C71.85989486 -0.63134656 78.02612971 -0.67376417 84.19482082 -0.66866922 C87.87061719 -0.66664101 91.54211698 -0.68872682 95.21701241 -0.77409363 C119.21297722 -1.29307172 119.21297722 -1.29307172 125.77780151 4.56494141 C128.68632403 7.79081726 130.92657452 11.2397488 133.00629997 15.042099 C135.09676729 18.68050208 137.72083731 21.9140054 140.28686523 25.22460938 C141.27782648 26.55334402 142.26643783 27.8838375 143.25170898 29.21679688 C146.68504444 33.80892552 150.27142176 38.27211854 153.86962891 42.73535156 C157.82635765 47.64750918 161.68428421 52.62517392 165.51733398 57.63476562 C168.79249914 61.911746 172.10282473 66.16131892 175.41186523 70.41210938 C176.26723877 71.51099487 176.26723877 71.51099487 177.13989258 72.63208008 C178.2582814 74.06860059 179.37676949 75.50504382 180.49536133 76.94140625 C183.40653562 80.68046886 186.31541148 84.4213191 189.22436523 88.16210938 C187.91087713 90.93286186 186.4488356 93.3819053 184.64233398 95.85742188 C184.12928711 96.56382812 183.61624023 97.27023438 183.08764648 97.99804688 C182.53463867 98.7534375 181.98163086 99.50882812 181.41186523 100.28710938 C180.22819406 101.91465724 179.0446025 103.542263 177.86108398 105.16992188 C177.25570801 106.00040039 176.65033203 106.83087891 176.02661133 107.68652344 C173.24781392 111.50351148 170.48652617 115.33307536 167.72436523 119.16210938 C166.63979493 120.6634585 165.55515932 122.16476045 164.47045898 123.66601562 C162.31431225 126.65120046 160.1608902 129.63832325 158.00952148 132.62695312 C152.36896626 140.45839714 146.69812153 148.26620992 140.97436523 156.03710938 C140.16140991 157.14107056 140.16140991 157.14107056 139.33203125 158.26733398 C138.26856732 159.70826443 137.19410758 161.14115874 136.10764694 162.56482983 C134.15538581 165.18294183 134.15538581 165.18294183 132.38614273 168.18937397 C127.04541349 176.46797109 127.04541349 176.46797109 122.25621796 178.29349327 C118.7355448 178.74355013 115.38181257 178.81902015 111.83276367 178.76245117 C110.51609207 178.78829788 109.19942047 178.81414459 107.84284973 178.84077454 C104.25258127 178.90792438 100.66629927 178.89952829 97.07564449 178.87281013 C94.06641653 178.85739825 91.05792073 178.87942359 88.04876828 178.90122634 C80.94078781 178.95212177 73.83474037 178.94164387 66.72680664 178.89135742 C59.42390272 178.84065501 52.12638633 178.88800178 44.82407165 178.98502606 C38.52864576 179.06546379 32.23488511 179.08685043 25.93899751 179.06148082 C22.1899856 179.04678109 18.44420763 179.05281838 14.69561005 179.11484337 C-9.7664933 179.47893233 -9.7664933 179.47893233 -16.41320801 173.89395142 C-19.31840775 170.86813681 -21.59188309 167.61948756 -23.68180084 163.99186134 C-25.30810473 161.27140016 -27.33981288 158.93603348 -29.40063477 156.53710938 C-30.10317383 155.66957031 -30.80571289 154.80203125 -31.52954102 153.90820312 C-34.0945387 150.77221465 -36.71220936 147.68455622 -39.33813477 144.59960938 C-43.20816646 140.04936614 -46.97523758 135.43377617 -50.68579102 130.75195312 C-53.14749109 127.70128556 -55.67388304 124.71075893 -58.21313477 121.72460938 C-66.98625984 111.39966269 -75.4367713 100.83897195 -83.77563477 90.16210938 C-82.08965504 86.29094922 -79.56974354 83.13151254 -76.96313477 79.84960938 C-76.48247559 79.24076904 -76.00181641 78.63192871 -75.5065918 78.00463867 C-71.30607766 72.73212534 -66.91734404 67.6354667 -62.47802734 62.5637207 C-58.56096131 58.08682388 -54.76233384 53.53029318 -51.02172852 48.90429688 C-48.92864822 46.34891884 -46.79416454 43.83705593 -44.64331055 41.33056641 C-40.11409272 36.04673667 -35.90749334 30.66688946 -31.87719727 24.98632812 C-29.02351196 21.15135698 -25.94079914 17.53537999 -22.80688477 13.92773438 C-22.37118164 13.42371094 -21.93547852 12.9196875 -21.48657227 12.40039062 C-21.06093711 11.91974907 -20.63530195 11.43910751 -20.19676876 10.94390106 C-18.71953612 9.19188332 -18.71953612 9.19188332 -17.64753819 7.13672638 C-13.26792223 -0.27872471 -8.08231891 -0.02419675 0 0 Z " fill="#FFE381" transform="translate(308.775634765625,105.837890625)"/>
<path d="M0 0 C16.74224699 -0.30447762 33.48358828 -0.53330628 50.22793961 -0.67355824 C58.00381588 -0.74042898 65.77796641 -0.83148863 73.55273438 -0.98071289 C80.33405316 -1.11080678 87.11412184 -1.19427522 93.89665389 -1.22315043 C97.48460146 -1.24001754 101.06897497 -1.27926727 104.65576935 -1.37449074 C128.17887488 -1.97503146 128.17887488 -1.97503146 134.34094238 2.79165649 C137.50725368 5.86489488 139.71701421 9.23837115 142 13 C143.45398561 14.8121615 144.92902247 16.60794057 146.4375 18.375 C147.50871094 19.70724609 147.50871094 19.70724609 148.6015625 21.06640625 C151.44112065 24.53954659 154.36730316 27.92891413 157.3125 31.3125 C157.86381592 31.94623535 158.41513184 32.5799707 158.9831543 33.23291016 C160.10209507 34.51882055 161.22115452 35.80462768 162.34033203 37.09033203 C168.54872623 44.23391241 174.72823972 51.39645872 180.6875 58.75 C184.22928241 63.11500751 187.93931145 67.28571117 191.72265625 71.44140625 C196.41909911 76.71785578 201.07870712 82.11806067 205 88 C204.00033203 89.16402344 204.00033203 89.16402344 202.98046875 90.3515625 C197.62083401 96.62232532 192.40192124 102.97268283 187.33862305 109.48486328 C183.64017256 114.22506673 179.83581711 118.87051179 176 123.5 C171.28684456 129.19134549 166.65546731 134.93324992 162.11328125 140.76171875 C158.15573658 145.83015316 154.10728308 150.82149473 150.02905273 155.79321289 C149.53477783 156.39770264 149.04050293 157.00219238 148.53125 157.625 C147.99730118 158.23703781 147.46335236 158.84907562 146.91322327 159.47966003 C144.8495064 162.03561991 144.8495064 162.03561991 143.29589844 165.42437744 C140.9139389 169.83047897 138.32285903 173.35118946 134 176 C125.14702873 178.58443616 115.54129921 177.99783623 106.39034462 177.88055706 C102.72651327 177.8448195 99.06314558 177.87806332 95.39929199 177.89996338 C89.2488486 177.92535318 83.10076726 177.89209434 76.95068359 177.82519531 C69.86475541 177.7490008 62.78446632 177.77368757 55.69867468 177.85076499 C49.58829048 177.91454199 43.47959269 177.92314875 37.36898279 177.88662362 C33.73100659 177.86492362 30.09567115 177.8615122 26.45787048 177.90813446 C2.70237956 178.17154626 2.70237956 178.17154626 -3.12963867 172.94787598 C-6.07765409 169.59681086 -7.98790393 165.96679207 -10 162 C-11.41191192 160.17152788 -12.8630395 158.37164851 -14.375 156.625 C-22.62679928 146.59022267 -30.83925311 136.52989616 -38.83544922 126.28979492 C-42.33732985 121.81601279 -45.90856117 117.40208542 -49.5 113 C-51.6688941 110.33513726 -53.83547941 107.66841626 -56 105 C-56.53286621 104.34338379 -57.06573242 103.68676758 -57.61474609 103.01025391 C-59.14604771 101.11653638 -60.66811926 99.21578844 -62.1875 97.3125 C-62.64511719 96.74853516 -63.10273437 96.18457031 -63.57421875 95.60351562 C-66.00471853 92.53945569 -67.76501933 89.71874068 -69 86 C-68.00033203 84.83597656 -68.00033203 84.83597656 -66.98046875 83.6484375 C-61.50107758 77.23740929 -56.1675871 70.74025815 -50.98266602 64.08886719 C-47.52972299 59.66173384 -44.00366079 55.30155 -40.4375 50.96484375 C-32.92332187 41.82500208 -25.46409786 32.64579608 -18.18652344 23.31616211 C-13.92127378 17.86291405 -9.54703377 12.50001616 -5.15039062 7.15234375 C-4.62380859 6.50910156 -4.09722656 5.86585937 -3.5546875 5.203125 C-3.08530762 4.63239258 -2.61592773 4.06166016 -2.13232422 3.47363281 C-0.91144939 1.98152438 -0.91144939 1.98152438 0 0 Z " fill="#FFA5A5" transform="translate(69,0)"/>
<path d="M0 0 C0.33 0 0.66 0 1 0 C1.25795757 15.14296356 1.45141972 30.28582542 1.56993389 45.43049812 C1.62644776 52.46401927 1.70336561 59.49616862 1.82983398 66.52880859 C1.95197464 73.32408367 2.01524378 80.11793746 2.04364967 86.91424179 C2.06387504 89.49860853 2.10337187 92.08290309 2.16303062 94.66666031 C2.69881069 118.84646599 2.69881069 118.84646599 -5.75709248 127.93580818 C-7.14905344 129.31348422 -8.57400332 130.65758424 -10 132 C-11.48356907 133.77082703 -12.94676756 135.55924736 -14.375 137.375 C-15.4578125 138.69177734 -15.4578125 138.69177734 -16.5625 140.03515625 C-24.08404499 149.18395857 -31.54601604 158.3751997 -38.83544922 167.71020508 C-42.87004811 172.86455451 -47.00000507 177.93837155 -51.13989258 183.00830078 C-55.35063143 188.17473541 -59.48551447 193.39666933 -63.57421875 198.66015625 C-68.45999602 204.93123013 -68.45999602 204.93123013 -71.30530357 205.29358196 C-72.27603624 205.31381829 -73.24676891 205.33405462 -74.24691772 205.35490417 C-75.35982178 205.38222122 -76.47272583 205.40953827 -77.61935425 205.43768311 C-78.84631012 205.45720032 -80.07326599 205.47671753 -81.33740234 205.49682617 C-82.62539734 205.5244252 -83.91339233 205.55202423 -85.24041748 205.58045959 C-97.14400164 205.82712842 -109.05115793 205.94927344 -120.95680809 206.04506969 C-129.75114889 206.1170817 -138.54085262 206.24466677 -147.33317983 206.44712847 C-153.52266965 206.58480311 -159.71090305 206.65651448 -165.90186274 206.68084508 C-169.59573069 206.69720778 -173.28393699 206.7420033 -176.97611618 206.85854149 C-199.36744442 207.53466526 -199.36744442 207.53466526 -205.39737892 203.32719612 C-209.27456225 199.39038299 -211.81889595 194.97773625 -214.07710838 189.96769714 C-215.27365358 187.41654323 -216.83637151 185.25687632 -218.55859375 183.03515625 C-219.03941406 182.37064453 -219.52023438 181.70613281 -220.015625 181.02148438 C-220.48484375 180.37501953 -220.9540625 179.72855469 -221.4375 179.0625 C-222.52997412 177.55340439 -223.62242124 176.04428922 -224.71484375 174.53515625 C-225.52864502 173.41197998 -225.52864502 173.41197998 -226.35888672 172.26611328 C-229.07648173 168.513552 -231.78794473 164.75656581 -234.5 161 C-235.58330362 159.49997854 -236.66663696 157.99997854 -237.75 156.5 C-244.25 147.5 -244.25 147.5 -245.87670898 145.24755859 C-246.95425052 143.75562787 -248.03188642 142.26376528 -249.10961914 140.77197266 C-251.90736583 136.8990816 -254.70319916 133.02482938 -257.49609375 129.1484375 C-258.07230469 128.34921875 -258.64851563 127.55 -259.2421875 126.7265625 C-260.33264902 125.21398684 -261.42253971 123.70099941 -262.51171875 122.1875 C-263.26195312 121.14722656 -263.26195312 121.14722656 -264.02734375 120.0859375 C-264.51243408 119.39483887 -264.99752441 118.70374023 -265.49731445 117.99169922 C-266.94838835 115.97483029 -266.94838835 115.97483029 -268.69604492 114.29345703 C-274.89097925 107.69929157 -273.68019923 99.56689504 -273.4375 91.125 C-273.40999103 89.38814387 -273.38534847 87.65124043 -273.36328125 85.91430664 C-273.30725407 81.94937126 -273.23143209 77.98536182 -273.14404297 74.02099609 C-272.98541429 66.64469571 -272.88306496 59.26801583 -272.78437996 51.89072418 C-272.55738782 34.92653935 -272.28882098 17.96324069 -272 1 C-268.45169295 4.5168832 -265.0874758 8.11320801 -261.875 11.9375 C-261.39981934 12.50106201 -260.92463867 13.06462402 -260.43505859 13.64526367 C-256.61358229 18.2064821 -252.92263233 22.86176506 -249.26708984 27.55639648 C-245.73595369 32.0858415 -242.13256035 36.55159619 -238.5 41 C-234.01643649 46.4922503 -229.60489922 52.03254162 -225.24755859 57.62524414 C-220.89183258 63.18966437 -216.38864369 68.63021373 -211.85766602 74.05249023 C-211.29877686 74.72481689 -210.7398877 75.39714355 -210.1640625 76.08984375 C-209.42857178 76.96950806 -209.42857178 76.96950806 -208.67822266 77.86694336 C-207 80 -207 80 -206.19153881 81.70839119 C-205.00278491 83.93549087 -203.94176159 85.36970228 -202 87 C-197.7608119 88.07371632 -193.57686223 87.94265227 -189.22338867 87.88647461 C-187.27645615 87.90263824 -187.27645615 87.90263824 -185.29019165 87.91912842 C-181.73850814 87.94782791 -178.18814416 87.93363604 -174.63646102 87.91168666 C-170.9221144 87.89604414 -167.20802588 87.91992202 -163.49372864 87.93959045 C-156.46367308 87.97082105 -149.43410585 87.96655909 -142.40401965 87.94951588 C-134.3991193 87.93183971 -126.39448041 87.9537754 -118.38961828 87.97902286 C-101.9263015 88.03006178 -85.4633703 88.03140681 -69 88 C-68.69758896 87.37696991 -68.39517792 86.75393982 -68.08360291 86.11203003 C-66.96343347 83.92872886 -65.70545402 82.25880645 -64.12890625 80.3828125 C-63.56034912 79.70081787 -62.99179199 79.01882324 -62.40600586 78.31616211 C-61.79764893 77.59307861 -61.18929199 76.86999512 -60.5625 76.125 C-56.11393826 70.78387974 -51.70674648 65.42323078 -47.4375 59.9375 C-43.51865555 54.90777351 -39.53206163 49.93943806 -35.5 45 C-30.89853322 39.36233801 -26.36531922 33.67792143 -21.88720703 27.94189453 C-19.09902923 24.37723628 -16.25919366 20.86297815 -13.375 17.375 C-9.31499668 12.45755916 -5.51496767 7.38242978 -1.75 2.23828125 C-1.1725 1.49964844 -0.595 0.76101563 0 0 Z " fill="#817FF0" transform="translate(321,371)"/>
</svg>
